<?xml version="1.0" encoding="utf-8"?>
<!-- Generator: Adobe Illustrator 28.0.0, SVG Export Plug-In . SVG Version: 6.00 Build 0)  -->
<svg version="1.1" id="Layer_1" xmlns="http://www.w3.org/2000/svg" xmlns:xlink="http://www.w3.org/1999/xlink" x="0px" y="0px"
	 viewBox="0 0 16 16" style="enable-background:new 0 0 16 16;" xml:space="preserve">
<style type="text/css">
	.st0{fill:#ED1943;}
	.st1{fill:#4750A2;}
	.st2{fill:#69BE54;}
</style>
<g>
	<g>
		<path class="st0" d="M1.31,3.62c0.36-0.55,0.57-0.81,1.04-1.27C3.39,1.29,4.06,0.87,5.5,0.4C5.32,1.07,5.23,1.43,5.09,2.19
			C3.39,2.54,2.61,2.85,1.31,3.62z M3.5,14.61c-2.63-4.24-2.63-8.99,0-13.23c0.24-0.16,0.36-0.24,0.61-0.38
			c-2.22,4.54-2.22,9.44,0,13.98C3.86,14.85,3.73,14.78,3.5,14.61z"/>
		<path class="st1" d="M6.24,15.8c-0.95-5.19-0.95-10.42,0-15.61c0.28-0.06,0.42-0.09,0.7-0.13c-0.57,5.29-0.57,10.57,0,15.86
			C6.65,15.89,6.51,15.87,6.24,15.8z M7.53,9.62C7.18,6.73,6.98,5.13,6.84,2.6c-0.1,0.01-0.16,0.01-0.26,0.02
			c0.08-1.09,0.13-1.6,0.24-2.54c0.21-0.03,0.32-0.04,0.53-0.06c0.1,2.27,0.27,3.71,0.61,6.72c0.02,0,0.03,0,0.04,0
			c0.04,1.14,0.06,1.74,0.1,2.87C7.87,9.62,7.76,9.62,7.53,9.62z M7.82,9.62c0.06-1.13,0.09-1.73,0.16-2.87c0.02,0,0.04,0,0.06,0
			C8.38,3.73,8.55,2.3,8.65,0.03c0.21,0.02,0.32,0.03,0.53,0.06c0.11,0.94,0.16,1.45,0.24,2.54C9.31,2.61,9.26,2.61,9.16,2.6
			C9.02,5.13,8.82,6.73,8.47,9.62C8.21,9.62,8.08,9.62,7.82,9.62z M9.06,15.93c0.57-5.29,0.57-10.57,0-15.86
			c0.29,0.04,0.43,0.06,0.7,0.13c0.95,5.19,0.95,10.42,0,15.61C9.49,15.87,9.35,15.89,9.06,15.93z"/>
		<path class="st2" d="M10.91,2.19c-0.14-0.76-0.23-1.12-0.41-1.79c1.44,0.47,2.11,0.89,3.16,1.94c0.46,0.46,0.67,0.72,1.04,1.27
			C13.39,2.85,12.61,2.54,10.91,2.19z M11.89,14.99c2.22-4.54,2.22-9.44,0-13.98c0.25,0.14,0.37,0.22,0.61,0.38
			c2.63,4.24,2.63,8.99,0,13.23C12.27,14.78,12.14,14.85,11.89,14.99z"/>
	</g>
</g>
</svg>
