<?xml version="1.0" encoding="utf-8"?>
<!-- Generator: Adobe Illustrator 28.0.0, SVG Export Plug-In . SVG Version: 6.00 Build 0)  -->
<svg version="1.1" id="Layer_1" xmlns="http://www.w3.org/2000/svg" xmlns:xlink="http://www.w3.org/1999/xlink" x="0px" y="0px"
	 viewBox="0 0 250 100" style="enable-background:new 0 0 250 100;" xml:space="preserve">
<style type="text/css">
	.st0{fill:#67BD45;}
	.st1{fill:#EE252E;}
	.st2{fill:#3E52A4;}
</style>
<g>
	<path class="st0" d="M49.5,51.06l39.55,22.65c-3.98,6.94-9.71,12.72-16.62,16.74c-21.61,12.58-49.74,5.14-62.31-16.47L49.5,51.06z"
		/>
	<path class="st1" d="M48.49,49.33L9.1,72.25c-4.02-6.91-6.16-14.77-6.19-22.77c-0.09-25,20.42-45.65,45.42-45.73L48.49,49.33z"/>
	<path class="st2" d="M50.72,49.19L50.56,3.61c8-0.03,15.87,2.05,22.81,6.03c21.7,12.43,29.32,40.5,16.9,62.2L50.72,49.19z"/>
</g>
<g>
	<path d="M124.26,37.71v34.72h-13.28V37.71h-9.46V26.77h32.21v10.94H124.26z"/>
	<path d="M194.47,26.77v45.65h-13.01V39.78l-8.44,32.64h-8.9l-8.78-32.64v32.64h-10.5V26.77h18.31l6.62,24.25l6.32-24.25H194.47z"/>
	<path d="M228.31,37.71v34.72h-13.28V37.71h-9.46V26.77h32.21v10.94H228.31z"/>
</g>
</svg>
